<svg id="Layer_1" data-name="Layer 1" xmlns="http://www.w3.org/2000/svg" viewBox="0 0 226.96 246.58"><title>design icon</title><path d="M0,246.58V0H83.25Q133.63,0,163,15.11t46.66,44.45a123.63,123.63,0,0,1,17.32,64,121,121,0,0,1-36.77,87.14,119.48,119.48,0,0,1-41.89,26.69,124.52,124.52,0,0,1-25.63,7.33q-11.67,1.86-44.54,1.86ZM79.54,31.46H35.35V215.11H80.6q26.51,0,41.18-3.62t24.48-9.19a83.78,83.78,0,0,0,17.94-13.7q26.16-26.51,26.16-67,0-39.77-26.87-64.87a85.78,85.78,0,0,0-22.71-15.38,95.11,95.11,0,0,0-24.3-8Q105,31.46,79.54,31.46Z"/><circle cx="106.56" cy="121.6" r="18.45"/></svg>