<?xml version="1.0" encoding="utf-8"?>
<!-- Generator: Adobe Illustrator 20.1.0, SVG Export Plug-In . SVG Version: 6.00 Build 0)  -->
<svg version="1.1" id="Layer_1" xmlns="http://www.w3.org/2000/svg" xmlns:xlink="http://www.w3.org/1999/xlink" x="0px" y="0px"
	 viewBox="0 0 708 537.2" style="enable-background:new 0 0 708 537.2;" xml:space="preserve">
<style type="text/css">
	.st0{enable-background:new    ;}
	.st1{fill:none;stroke:#000000;stroke-miterlimit:10;}
</style>
<title>Asset 1</title>
<g class="st0">
	<path d="M377.5,364.4l-4.7-5.7l67-80.7v-18h-20.5l-8.2,10v8.2c0,15.7-1.2,26.8-3.7,33.2c-2.5,6.5-6.5,12.1-12.1,16.8
		c-10.7,8.8-24.4,13.3-41.4,13.3c-11.9,0-22.2-2.2-30.9-6.6c-5.7-2.9-10.4-6.4-14.2-10.5l28.5,34.3l-5,6l-83,99.9H285l70.4-84.8
		l69.7,84.8h35.4L377.5,364.4z M303.5,317.2c-4.3-7.3-6.4-20.3-6.4-39.1v-11l-5.8-7.1h-22.8v15.6l37.4,45.2
		C305,319.7,304.2,318.5,303.5,317.2z"/>
</g>
<g class="st0">
	<path d="M411.1,257v13v8.2c0,15.7-1.2,26.8-3.7,33.2c-2.5,6.5-6.5,12.1-12.1,16.8c-10.6,8.8-24.4,13.3-41.3,13.3
		c-11.9,0-22.2-2.2-30.9-6.6c-5.7-2.9-10.5-6.4-14.2-10.5c-1.1-1.1-2-2.3-3-3.6c-0.8-1.1-1.6-2.3-2.3-3.6
		c-4.3-7.3-6.4-20.3-6.4-39.1v-11.1V257h-28.7v3v15.6v2.2c0,16.1,1.1,27.9,3.2,35.4c2.1,7.5,4.8,13.9,8.1,19c3.3,5.2,7.3,9.9,12,14
		c11,9.4,24.5,15.6,40.4,18.4c6.9,1.2,14.2,1.8,22,1.8c8.3,0,16-0.7,23.3-2.2c15.1-3,27.9-9,38.6-18.2c4.8-4.1,8.8-8.7,12-13.9
		c3.3-5.2,6-11.7,8.3-19.5c2.2-7.8,3.4-19.3,3.4-34.6V278v-18v-3H411.1z"/>
</g>
<circle cx="354" cy="257" r="22.7"/>
<line class="st1" x1="376.7" y1="257" x2="331.3" y2="257"/>
</svg>
