<svg id="Low_Poly" data-name="Low Poly" xmlns="http://www.w3.org/2000/svg" viewBox="0 0 279 765"><defs><style>.cls-1{fill:#816b63;}.cls-2{fill:#a98868;}.cls-3{fill:#221a0c;}.cls-4{fill:#2e2014;}.cls-5{fill:#251d15;}.cls-6{fill:#2d2215;}.cls-7{fill:#232015;}.cls-8{fill:#262313;}.cls-9{fill:#251f12;}.cls-10{fill:#7a5d3e;}.cls-11{fill:#242418;}.cls-12{fill:#322c1e;}.cls-13{fill:#242110;}.cls-14{fill:#18150c;}.cls-15{fill:#271b0d;}.cls-16{fill:#13140b;}.cls-17{fill:#4f2d0b;}.cls-18{fill:#634d30;}.cls-19{fill:#a87141;}.cls-20{fill:#352113;}.cls-21{fill:#795638;}.cls-22{fill:#2a261a;}.cls-23{fill:#4d3419;}.cls-24{fill:#19170c;}.cls-25{fill:#2b1e12;}.cls-26{fill:#2f2717;}.cls-27{fill:#2a2215;}.cls-28{fill:#1e190c;}.cls-29{fill:#372414;}.cls-30{fill:#7d6347;}.cls-31{fill:#252416;}.cls-32{fill:#412914;}.cls-33{fill:#190a03;}.cls-34{fill:#000001;}.cls-35{fill:#83643f;}.cls-36{fill:#4f3015;}.cls-37{fill:#2e230b;}.cls-38{fill:#221b0e;}.cls-39{fill:#2d2813;}.cls-40{fill:#221f0d;}.cls-41{fill:#281b12;}.cls-42{fill:#2d1d0e;}.cls-43{fill:#2b1811;}.cls-44{fill:#362616;}.cls-45{fill:#5b4630;}.cls-46{fill:#b99779;}.cls-47{fill:#915e3b;}.cls-48{fill:#6f5942;}.cls-49{fill:#1f2018;}.cls-50{fill:#4a403a;}.cls-51{fill:#4e2e17;}.cls-52{fill:#bea78a;}.cls-53{fill:#724e30;}.cls-54{fill:#795e3a;}.cls-55{fill:#533518;}.cls-56{fill:#a28055;}.cls-57{fill:#593c1e;}.cls-58{fill:#553720;}.cls-59{fill:#634024;}.cls-60{fill:#402714;}.cls-61{fill:#54371d;}.cls-62{fill:#3e2512;}.cls-63{fill:#5f422c;}.cls-64{fill:#62442a;}.cls-65{fill:#cdb593;}.cls-66{fill:#866346;}.cls-67{fill:#49321a;}.cls-68{fill:#4d351b;}.cls-69{fill:#552f07;}.cls-70{fill:#55330e;}.cls-71{fill:#4f361f;}.cls-72{fill:#382f21;}.cls-73{fill:#5f3f28;}.cls-74{fill:#423932;}.cls-75{fill:#4f3720;}.cls-76{fill:#a57f65;}.cls-77{fill:#855e3e;}.cls-78{fill:#8a6a48;}.cls-79{fill:#674a33;}.cls-80{fill:#a7865d;}.cls-81{fill:#604a34;}.cls-82{fill:#9a7a5d;}.cls-83{fill:#654e32;}.cls-84{fill:#4a2f17;}.cls-85{fill:#9d7a66;}.cls-86{fill:#29221b;}.cls-87{fill:#9e7c5f;}.cls-88{fill:#322316;}.cls-89{fill:#765437;}.cls-90{fill:#3b2809;}.cls-91{fill:#987354;}.cls-92{fill:#6e5644;}.cls-93{fill:#4e4232;}.cls-94{fill:#252822;}.cls-95{fill:#1c1208;}.cls-96{fill:#412609;}.cls-97{fill:#371c0d;}.cls-98{fill:#39210f;}.cls-99{fill:#181a0e;}</style></defs><title>stagpoly</title><polygon class="cls-1" points="99 207 99 216 126 252 99 207"/><polygon class="cls-2" points="234 423 250.36 394.36 225 369 225 378 216 414 234 423"/><polygon class="cls-3" points="126 252 162 324 207 297 126 252"/><polygon class="cls-4" points="99 216 81 252 126 252 99 216"/><polygon class="cls-5" points="117 288 162 324 126 252 117 288"/><polygon class="cls-6" points="81 252 117 288 126 252 81 252"/><polygon class="cls-7" points="72 171 81 252 99 216 72 171"/><polygon class="cls-8" points="27 108 9 126 63 135 27 108"/><polygon class="cls-9" points="9 126 36 180 63 135 9 126"/><polygon class="cls-10" points="225 378 198 360 198 387 225 378"/><polygon class="cls-11" points="63 135 36 180 72 171 63 135"/><polygon class="cls-1" points="108 189 99 207 126 252 108 189"/><polygon class="cls-12" points="234 288 224 263 207 297 240.88 322.41 234 288"/><polygon class="cls-13" points="240.88 322.41 207 297 234 342 198 342 225 369 241.8 327 240.88 322.41"/><polygon class="cls-14" points="162 324 198 342 207 297 162 324"/><polygon class="cls-15" points="243 333 241.8 327 225 369 252 342 243 333"/><polygon class="cls-16" points="252 342 225 369 270 360 252 342"/><polygon class="cls-17" points="270 360 225 369 250.36 394.36 270 360"/><polygon class="cls-18" points="162 378 180 378 162 360 162 378"/><polygon class="cls-19" points="198 189 198 243 198.9 248.4 207 216 198 189"/><polygon class="cls-20" points="222.92 260.31 199.59 252.53 207 297 224 263 222.92 260.31"/><polygon class="cls-21" points="198 396 216 414 225 378 198 387 198 396"/><polygon class="cls-22" points="45 108 27 108 63 135 45 108"/><polygon class="cls-23" points="216 243 207 216 198.9 248.4 199.59 252.53 222.92 260.31 216 243"/><polygon class="cls-24" points="36 180 63 225 81 252 72 171 36 180"/><polygon class="cls-25" points="9 72 0 81 27 108 9 72"/><polygon class="cls-26" points="27 225 72 270 54 234 27 225"/><polygon class="cls-27" points="36 207 27 225 54 234 36 207"/><polygon class="cls-28" points="72 270 117 288 81 252 72 270"/><polygon class="cls-29" points="27 180 27 225 36 207 27 180"/><polygon class="cls-30" points="9 54 0 81 9 72 9 54"/><polygon class="cls-31" points="54 234 72 270 81 252 54 234"/><polygon class="cls-32" points="279 729 279 711 225 729 279 729"/><polygon class="cls-33" points="252 765 279 729 225 729 252 765"/><polygon class="cls-34" points="279 765 279 729 252 765 279 765"/><polygon class="cls-35" points="117 333 144 360 144 342 117 333"/><polygon class="cls-36" points="198 729 225 729 180 711 198 729"/><polygon class="cls-36" points="225 729 279 711 180 711 225 729"/><polygon class="cls-37" points="117 54 135 45 144 18 108 63 117 63 117 54"/><polygon class="cls-25" points="0 81 9 126 27 108 0 81"/><polygon class="cls-38" points="108 63 90 72 90 99 108 63"/><polygon class="cls-39" points="72 99 45 108 63 135 72 99"/><polygon class="cls-40" points="117 63 108 63 90 99 117 63"/><polygon class="cls-41" points="90 72 108 45 90 63 72 99 81 108 90 72"/><polygon class="cls-42" points="90 99 90 72 81 108 72 99 63 135 90 99"/><polygon class="cls-43" points="117 63 135 45 117 54 117 63"/><polygon class="cls-44" points="81 36 63 72 90 45 81 36"/><polygon class="cls-45" points="90 45 63 72 72 99 90 45"/><polygon class="cls-46" points="108 0 81 36 90 45 108 0"/><polygon class="cls-47" points="153 27 171 0 144 18 144 36 153 27"/><polygon class="cls-48" points="144 36 144 18 135 45 144 36"/><polygon class="cls-49" points="63 72 45 108 72 99 63 72"/><polygon class="cls-50" points="261 495 252 495 252 504 261 495"/><polygon class="cls-51" points="207 657 279 657 233.34 639.44 207 657"/><polygon class="cls-52" points="252 531 252 540 261 549 279 549 261 531 252 531"/><polygon class="cls-53" points="234 684 279 711 279 657 231.33 683 234 684"/><polygon class="cls-54" points="233.34 639.44 279 657 279 585 234 639 233.34 639.44"/><polygon class="cls-55" points="279 585 279 549 261 549 279 585"/><polygon class="cls-56" points="198 387 198 360 162 360 198 387"/><polygon class="cls-57" points="162 657 231.33 683 279 657 207 657 162 657"/><polygon class="cls-58" points="231.33 683 180 711 279 711 234 684 231.33 683"/><polygon class="cls-59" points="234 639 180 567 162 612 233.34 639.44 234 639"/><polygon class="cls-60" points="252 540 189 522 180 567 261 549 252 540"/><polygon class="cls-61" points="233.34 639.44 162 612 207 657 233.34 639.44"/><polygon class="cls-62" points="162 657 180 711 231.33 683 162 657"/><polygon class="cls-63" points="162 612 162 657 207 657 162 612"/><polygon class="cls-64" points="279 468 279 423 234 441 279 468"/><polygon class="cls-65" points="261 531 279 549 279 531 270 531 261 531"/><polygon class="cls-66" points="279 486 279 468 270 477 279 486"/><polygon class="cls-67" points="225 495 189 522 234 522 225 495"/><polygon class="cls-68" points="234 441 279 423 234 423 234 441"/><polygon class="cls-69" points="250.36 394.36 252 396 279 423 270 360 250.36 394.36"/><polygon class="cls-70" points="270 360 279 423 279 369 270 360"/><polygon class="cls-71" points="250.36 394.36 234 423 279 423 252 396 250.36 394.36"/><polygon class="cls-72" points="279 531 279 504 270 531 279 531"/><polygon class="cls-72" points="270 531 279 504 261 513 270 531"/><polygon class="cls-73" points="279 504 279 486 261 495 279 504"/><polygon class="cls-66" points="252 495 261 495 279 486 270 477 252 495"/><polygon class="cls-74" points="261 513 279 504 261 495 261 513"/><polygon class="cls-75" points="180 567 234 576.82 234 576 234 576.82 279 585 261 549 180 567"/><polygon class="cls-76" points="216 423 216 441 234 441 216 423"/><polygon class="cls-77" points="216 441 207 450 234 441 216 441"/><polygon class="cls-77" points="207 450 207 477 234 441 207 450"/><polygon class="cls-78" points="252 540 252 531 234 522 252 540"/><polygon class="cls-79" points="234 441 207 477 252 495 234 441"/><polygon class="cls-80" points="180 405 198 414 180 378 180 405"/><polygon class="cls-81" points="162 378 162 360 144 360 180 405 180 378 162 378"/><polygon class="cls-82" points="198 360 144 342 144 360 162 360 198 360"/><polygon class="cls-83" points="198 396 198 414 216 423 216 414 198 396"/><polygon class="cls-84" points="225 495 234 522 234 504 225 495"/><polygon class="cls-83" points="180 378 198 414 198 396 180 378"/><polygon class="cls-85" points="234 504 234 522 252 513 234 504"/><polygon class="cls-86" points="261 522 261 513 252 513 261 522"/><polygon class="cls-87" points="252 513 252 504 252 495 234 504 252 513"/><polygon class="cls-88" points="252 513 261 513 252 504 252 513"/><polygon class="cls-50" points="261 513 261 495 252 504 261 513"/><polygon class="cls-89" points="234 504 252 495 207 477 225 495 234 504"/><polygon class="cls-90" points="207 477 189 522 225 495 207 477"/><polygon class="cls-91" points="252 513 252 531 261 531 261 522 252 513"/><polygon class="cls-78" points="234 522 252 531 252 513 234 522"/><polygon class="cls-92" points="261 531 270 531 261 522 261 531"/><polygon class="cls-93" points="270 531 261 513 261 522 270 531"/><polygon class="cls-18" points="162 360 180 378 198 396 198 387 162 360"/><polygon class="cls-94" points="234 423 216 414 216 423 234 441 234 423"/><polygon class="cls-95" points="207 297 198 342 234 342 207 297"/><polygon class="cls-96" points="234 576.82 180 567 234 639 234 576.82"/><polygon class="cls-97" points="234 639 279 585 234 576.82 234 639"/><polygon class="cls-98" points="234 522 189 522 252 540 234 522"/><polygon class="cls-99" points="252 495 270 477 279 468 234 441 252 495"/></svg>